<?xml version="1.0" encoding="utf-8"?>
<!-- Generator: Adobe Illustrator 25.2.3, SVG Export Plug-In . SVG Version: 6.00 Build 0)  -->
<svg version="1.1" id="Lager_1" xmlns="http://www.w3.org/2000/svg" xmlns:xlink="http://www.w3.org/1999/xlink" x="0px" y="0px"
	 viewBox="0 0 800 458" style="enable-background:new 0 0 800 458;" xml:space="preserve">
<style type="text/css">
	.st0{fill:none;stroke:#404040;stroke-width:4;stroke-miterlimit:10;}
	.st1{fill:#B18BE8;stroke:#404040;stroke-width:4;stroke-miterlimit:10;}
	.st2{fill:#4ED1A1;stroke:#404040;stroke-width:4;stroke-miterlimit:10;}
	.st3{fill:#B3E3FF;stroke:#404040;stroke-width:4;stroke-miterlimit:10;}
	.st4{fill:#B18BE8;stroke:#404040;stroke-width:4;stroke-linecap:round;stroke-linejoin:round;stroke-miterlimit:10;}
	.st5{fill:#404040;}
	.st6{fill:#4ED1A1;stroke:#404040;stroke-width:4;stroke-linecap:round;stroke-linejoin:round;stroke-miterlimit:10;}
	.st7{fill:none;stroke:#404040;stroke-width:4;stroke-linecap:round;stroke-linejoin:round;stroke-miterlimit:10;}
	.st8{fill:#B3E3FF;stroke:#404040;stroke-width:4;stroke-linecap:round;stroke-linejoin:round;stroke-miterlimit:10;}
	.st9{fill:#414141;}
</style>
<path class="st0" d="M148.2,187.3c0,22.6-18.4,41-41,41 M148.2,187.3c0-22.6,18.4-41,41-41h22.4"/>
<circle class="st1" cx="232.6" cy="146.3" r="21"/>
<path class="st0" d="M428.9,269.3c0-22.6-18.4-41-41-41 M428.9,269.3c0,22.6,18.4,41,41,41h214.4"/>
<circle class="st2" cx="513.2" cy="310.3" r="21"/>
<circle class="st2" cx="609.2" cy="310.3" r="21"/>
<circle class="st2" cx="705.2" cy="310.3" r="21"/>
<path class="st3" d="M75.2,228.3h417"/>
<circle class="st3" cx="54.2" cy="228.3" r="21"/>
<circle class="st3" cx="231.6" cy="228.3" r="21"/>
<circle class="st3" cx="328.6" cy="228.3" r="21"/>
<circle class="st3" cx="513.2" cy="228.3" r="21"/>
<path class="st4" d="M166,5.1h133.1v50H166V5.1z"/>
<path class="st5" d="M184.3,36.1V25.5h1.5v9.3h5v1.4h-6.5V36.1z M193.8,25.2c0.6,0,1,0.4,1,1s-0.4,1-1,1s-1-0.5-1-1
	C192.8,25.6,193.3,25.2,193.8,25.2z M193.1,36.1v-7.2h1.4v7.2H193.1z M199.6,28.9h1.6v1.3h-1.6V34c0,0.7,0.3,1,1,1
	c0.2,0,0.4,0,0.6-0.1v1.2c-0.1,0-0.5,0.1-1,0.1c-1.2,0-2-0.8-2-2.1v-4h-1.4v-1.3h0.4c0.8,0,1.1-0.5,1.1-1.1v-1.2h1.3L199.6,28.9
	L199.6,28.9z M205.6,28.9h1.6v1.3h-1.6V34c0,0.7,0.3,1,1,1c0.2,0,0.4,0,0.6-0.1v1.2c-0.1,0-0.5,0.1-1,0.1c-1.2,0-2-0.8-2-2.1v-4
	h-1.4v-1.3h0.4c0.8,0,1.1-0.5,1.1-1.1v-1.2h1.3L205.6,28.9L205.6,28.9z M209.8,36.1V25.3h1.4v10.9L209.8,36.1L209.8,36.1z
	 M220.7,34.1c-0.4,1.3-1.6,2.3-3.2,2.3c-1.9,0-3.6-1.4-3.6-3.9c0-2.3,1.6-3.8,3.4-3.8c2.2,0,3.5,1.5,3.5,3.8v0.4h-5.4
	c0,1.3,1,2.2,2.2,2.2s1.8-0.6,2-1.5L220.7,34.1z M219.3,31.8c0-1-0.7-1.8-2-1.8c-1.2,0-1.9,0.9-2,1.8H219.3z M227.9,36.1V25.5h6.5
	v1.4h-5v3.4h4.5v1.4h-4.5v4.5L227.9,36.1L227.9,36.1z M242.5,34.1c-0.4,1.3-1.6,2.3-3.2,2.3c-1.9,0-3.6-1.4-3.6-3.9
	c0-2.3,1.6-3.8,3.4-3.8c2.2,0,3.5,1.5,3.5,3.8v0.4h-5.4c0,1.3,1,2.2,2.2,2.2s1.8-0.6,2-1.5L242.5,34.1z M241.1,31.8
	c0-1-0.7-1.8-2-1.8c-1.2,0-1.9,0.9-2,1.8H241.1z M246.9,32l1.9-0.3c0.4-0.1,0.6-0.3,0.6-0.5c0-0.7-0.5-1.3-1.6-1.3
	c-1,0-1.5,0.6-1.6,1.5l-1.4-0.3c0.2-1.4,1.4-2.3,3-2.3c2.2,0,3,1.2,3,2.6V35c0,0.6,0.1,1,0.1,1.2h-1.4c0-0.2-0.1-0.5-0.1-1
	c-0.3,0.5-1,1.2-2.3,1.2c-1.5,0-2.4-1-2.4-2.2C244.7,32.9,245.6,32.2,246.9,32z M249.4,33.1v-0.3l-2.2,0.3c-0.6,0.1-1,0.4-1,1.1
	c0,0.5,0.4,1,1.2,1C248.5,35.2,249.4,34.6,249.4,33.1z M255.6,28.9h1.6v1.3h-1.6V34c0,0.7,0.3,1,1,1c0.2,0,0.4,0,0.6-0.1v1.2
	c-0.1,0-0.5,0.1-1,0.1c-1.2,0-2-0.8-2-2.1v-4h-1.4v-1.3h0.4c0.8,0,1.1-0.5,1.1-1.1v-1.2h1.3V28.9z M262.4,36.4
	c-1.7,0-2.7-1.3-2.7-2.9V29h1.4v4.3c0,1,0.4,1.9,1.6,1.9c1.1,0,1.7-0.8,1.7-1.8V29h1.4v5.9c0,0.6,0,1.1,0.1,1.3h-1.4
	c0-0.2-0.1-0.6-0.1-0.9C264.2,36,263.3,36.4,262.4,36.4z M273.1,30.4h-0.6c-1.2,0-2,0.6-2,2.2v3.6h-1.4V29h1.4v1.3
	c0.5-1.1,1.4-1.4,2.2-1.4h0.5v1.5L273.1,30.4z M281.5,34.1c-0.4,1.3-1.6,2.3-3.2,2.3c-1.9,0-3.6-1.4-3.6-3.9c0-2.3,1.6-3.8,3.4-3.8
	c2.2,0,3.5,1.5,3.5,3.8v0.4h-5.4c0,1.3,1,2.2,2.2,2.2s1.8-0.6,2-1.5L281.5,34.1z M280.1,31.8c0-1-0.7-1.8-2-1.8
	c-1.2,0-1.9,0.9-2,1.8H280.1z"/>
<path class="st6" d="M643.6,401.4h123.2v50H643.6V401.4z"/>
<path class="st5" d="M668.1,421.7c2,0,3.2,1.2,3.2,2.9c0,1.1-0.7,2-1.6,2.3c1.2,0.3,1.9,1.4,1.9,2.6c0,1.7-1.3,2.9-3.3,2.9h-3.7
	v-10.6L668.1,421.7L668.1,421.7z M667.9,426.4c1.2,0,1.9-0.7,1.9-1.7s-0.7-1.7-1.9-1.7h-1.8v3.4L667.9,426.4L667.9,426.4z
	 M668.2,431.1c1.2,0,2-0.7,2-1.7s-0.6-1.7-1.9-1.7h-2.1v3.4L668.2,431.1L668.2,431.1z M675,421.4c0.6,0,1,0.4,1,1s-0.4,1-1,1
	s-1-0.5-1-1C674,421.8,674.4,421.4,675,421.4z M674.3,432.4v-7.2h1.4v7.2H674.3z M679.7,432.4c0.1,1,0.9,1.8,2,1.8
	c1.5,0,2.2-0.8,2.2-2.3v-1c-0.3,0.7-1.1,1.2-2.2,1.2c-1.9,0-3.3-1.5-3.3-3.5c0-1.9,1.3-3.5,3.3-3.5c1.1,0,1.9,0.4,2.2,1.1v-1h1.4
	v6.7c0,1.8-0.9,3.6-3.6,3.6c-1.8,0-3.1-1.1-3.3-2.7L679.7,432.4L679.7,432.4z M683.9,428.5c0-1.4-0.8-2.3-2.1-2.3
	c-1.2,0-2.1,0.9-2.1,2.3s0.8,2.3,2.1,2.3C683,430.8,683.9,429.9,683.9,428.5z M692.9,432.4v-10.6h6.5v1.4h-5v3.4h4.5v1.4h-4.5v4.5
	L692.9,432.4L692.9,432.4z M707.5,430.3c-0.4,1.3-1.6,2.3-3.2,2.3c-1.9,0-3.6-1.4-3.6-3.9c0-2.3,1.6-3.8,3.4-3.8
	c2.2,0,3.5,1.5,3.5,3.8v0.4h-5.4c0,1.3,1,2.2,2.2,2.2s1.8-0.6,2-1.5L707.5,430.3z M706.1,428c0-1-0.7-1.8-2-1.8
	c-1.2,0-1.9,0.9-2,1.8H706.1z M711.8,428.2l1.9-0.3c0.4-0.1,0.6-0.3,0.6-0.5c0-0.7-0.5-1.3-1.6-1.3c-1,0-1.5,0.6-1.6,1.5l-1.4-0.3
	c0.2-1.4,1.4-2.3,3-2.3c2.2,0,3,1.2,3,2.6v3.6c0,0.6,0.1,1,0.1,1.2h-1.4c0-0.2-0.1-0.5-0.1-1c-0.3,0.5-1,1.2-2.3,1.2
	c-1.5,0-2.4-1-2.4-2.2C709.7,429.1,710.6,428.4,711.8,428.2L711.8,428.2z M714.4,429.3V429l-2.2,0.3c-0.6,0.1-1.1,0.4-1.1,1.1
	c0,0.5,0.4,1,1.2,1C713.4,431.4,714.4,430.8,714.4,429.3z M720.6,425.1h1.6v1.3h-1.6v3.8c0,0.7,0.3,1,1,1c0.2,0,0.4,0,0.6-0.1v1.2
	c-0.1,0-0.5,0.1-1,0.1c-1.2,0-2-0.8-2-2.1v-4h-1.4V425h0.4c0.8,0,1.1-0.5,1.1-1.1v-1.2h1.3L720.6,425.1L720.6,425.1z M727.4,432.6
	c-1.7,0-2.7-1.3-2.7-2.9v-4.5h1.4v4.3c0,1,0.4,1.9,1.6,1.9c1.1,0,1.7-0.8,1.7-1.8v-4.4h1.4v5.9c0,0.6,0,1.1,0.1,1.3h-1.4
	c0-0.2-0.1-0.6-0.1-0.9C729.1,432.2,728.2,432.6,727.4,432.6z M738,426.6h-0.6c-1.2,0-2,0.6-2,2.2v3.6H734v-7.2h1.4v1.3
	c0.5-1.1,1.4-1.4,2.2-1.4h0.5v1.5H738z M746.5,430.3c-0.4,1.3-1.6,2.3-3.2,2.3c-1.9,0-3.6-1.4-3.6-3.9c0-2.3,1.6-3.8,3.4-3.8
	c2.2,0,3.5,1.5,3.5,3.8v0.4h-5.4c0,1.3,1,2.2,2.2,2.2s1.8-0.6,2-1.5L746.5,430.3z M745.1,428c0-1-0.7-1.8-2-1.8
	c-1.2,0-1.9,0.9-2,1.8H745.1z"/>
<path class="st7" d="M232.6,100.8V77.3 M243.4,92.1l-10.8,10.8l-10.9-10.8 M513.2,183v-23.5 M524.1,174.3l-10.9,10.8l-10.9-10.8
	 M705.2,355.7v23.5 M694.3,364.4l10.9-10.9l10.9,10.9"/>
<g>
	<path class="st8" d="M463.9,86.8h96.2v50h-96.2V86.8z"/>
	<g>
		<path class="st9" d="M496.8,117.9v-10h2l2.4,7.1c0.2,0.7,0.4,1.2,0.5,1.5c0.1-0.4,0.3-0.9,0.5-1.6l2.4-7h1.8v10h-1.3v-8.4
			l-2.9,8.4H501l-2.9-8.5v8.5H496.8z"/>
		<path class="st9" d="M513.8,117c-0.5,0.4-0.9,0.7-1.3,0.8c-0.4,0.2-0.9,0.2-1.4,0.2c-0.8,0-1.4-0.2-1.8-0.6
			c-0.4-0.4-0.6-0.9-0.6-1.5c0-0.4,0.1-0.7,0.2-1c0.2-0.3,0.4-0.5,0.6-0.7c0.3-0.2,0.6-0.3,0.9-0.4c0.2-0.1,0.6-0.1,1.1-0.2
			c1-0.1,1.7-0.3,2.2-0.4c0-0.2,0-0.3,0-0.3c0-0.5-0.1-0.9-0.3-1.1c-0.3-0.3-0.8-0.4-1.4-0.4c-0.6,0-1,0.1-1.3,0.3
			c-0.3,0.2-0.5,0.6-0.6,1.1l-1.2-0.2c0.1-0.5,0.3-0.9,0.5-1.2c0.3-0.3,0.6-0.6,1.1-0.7c0.5-0.2,1-0.3,1.6-0.3s1.1,0.1,1.5,0.2
			s0.7,0.3,0.9,0.6c0.2,0.2,0.3,0.5,0.4,0.8c0,0.2,0.1,0.6,0.1,1.1v1.6c0,1.1,0,1.9,0.1,2.2s0.2,0.6,0.3,0.9h-1.3
			C513.9,117.7,513.8,117.4,513.8,117z M513.7,114.3c-0.4,0.2-1.1,0.3-2,0.5c-0.5,0.1-0.9,0.2-1.1,0.2c-0.2,0-0.4,0.2-0.5,0.4
			c-0.1,0.2-0.2,0.4-0.2,0.6c0,0.3,0.1,0.6,0.4,0.8c0.2,0.2,0.6,0.3,1.1,0.3s0.9-0.1,1.3-0.3c0.4-0.2,0.6-0.5,0.8-0.9
			c0.1-0.3,0.2-0.7,0.2-1.2V114.3L513.7,114.3z"/>
		<path class="st9" d="M517.5,109.3v-1.4h1.2v1.4H517.5z M517.5,117.9v-7.3h1.2v7.3H517.5z"/>
		<path class="st9" d="M521.3,117.9v-7.3h1.1v1c0.5-0.8,1.3-1.2,2.3-1.2c0.4,0,0.8,0.1,1.2,0.2c0.4,0.2,0.6,0.4,0.8,0.6
			s0.3,0.6,0.4,0.9c0,0.2,0.1,0.6,0.1,1.2v4.5H526v-4.4c0-0.5,0-0.9-0.1-1.1s-0.3-0.4-0.5-0.6c-0.2-0.1-0.5-0.2-0.9-0.2
			c-0.5,0-1,0.2-1.4,0.5s-0.6,1-0.6,1.9v4H521.3L521.3,117.9z"/>
	</g>
</g>
</svg>
